FILE "Gambler Jiko Chuushinha 2 - Gekitou! Tokyo Mahjongland Hen (1992)(Game Arts)(JP).img" BINARY
  TRACK 01 MODE1/2352
    INDEX 01 00:00:00
  TRACK 02 AUDIO
    PREGAP 00:02:00
    INDEX 01 03:11:30
  TRACK 03 AUDIO
    INDEX 00 03:15:43
    INDEX 01 03:17:42
  TRACK 04 AUDIO
    INDEX 00 04:33:16
    INDEX 01 04:35:15
  TRACK 05 AUDIO
    INDEX 00 05:20:63
    INDEX 01 05:22:62
  TRACK 06 AUDIO
    INDEX 00 07:16:45
    INDEX 01 07:18:44
  TRACK 07 AUDIO
    INDEX 00 07:53:66
    INDEX 01 07:55:65
  TRACK 08 AUDIO
    INDEX 00 08:31:13
    INDEX 01 08:33:12
  TRACK 09 AUDIO
    INDEX 00 09:08:35
    INDEX 01 09:10:34
  TRACK 10 AUDIO
    INDEX 00 10:21:55
    INDEX 01 10:23:54
  TRACK 11 AUDIO
    INDEX 00 15:22:52
    INDEX 01 15:24:51
  TRACK 12 AUDIO
    INDEX 00 17:05:09
    INDEX 01 17:07:08
  TRACK 13 AUDIO
    INDEX 00 17:42:30
    INDEX 01 17:44:29
  TRACK 14 AUDIO
    INDEX 00 18:19:52
    INDEX 01 18:21:51
  TRACK 15 AUDIO
    INDEX 00 18:56:73
    INDEX 01 18:58:72
  TRACK 16 AUDIO
    INDEX 00 20:10:34
    INDEX 01 20:12:33
  TRACK 17 AUDIO
    INDEX 00 23:54:12
    INDEX 01 23:56:11
  TRACK 18 AUDIO
    INDEX 00 24:08:39
    INDEX 01 24:10:38
  TRACK 19 AUDIO
    INDEX 00 24:16:55
    INDEX 01 24:18:54
  TRACK 20 AUDIO
    INDEX 00 26:15:61
    INDEX 01 26:17:60
  TRACK 21 AUDIO
    INDEX 00 27:53:61
    INDEX 01 27:55:60
  TRACK 22 AUDIO
    INDEX 00 29:01:02
    INDEX 01 29:03:01
  TRACK 23 AUDIO
    INDEX 00 29:12:17
    INDEX 01 29:14:16
  TRACK 24 AUDIO
    INDEX 00 29:23:02
    INDEX 01 29:25:01
  TRACK 25 AUDIO
    INDEX 00 30:18:32
    INDEX 01 30:20:31
  TRACK 26 AUDIO
    INDEX 00 31:40:03
    INDEX 01 31:42:02
  TRACK 27 AUDIO
    INDEX 00 32:22:13
    INDEX 01 32:24:12
  TRACK 28 AUDIO
    INDEX 00 33:21:73
    INDEX 01 33:23:72
  TRACK 29 AUDIO
    INDEX 00 34:14:72
    INDEX 01 34:16:71
  TRACK 30 AUDIO
    INDEX 00 35:11:68
    INDEX 01 35:13:67
  TRACK 31 AUDIO
    INDEX 00 35:56:72
    INDEX 01 35:58:71
  TRACK 32 AUDIO
    INDEX 00 36:49:20
    INDEX 01 36:51:19
  TRACK 33 AUDIO
    INDEX 00 37:06:25
    INDEX 01 37:08:24
  TRACK 34 AUDIO
    INDEX 00 37:54:09
    INDEX 01 37:56:08
  TRACK 35 AUDIO
    INDEX 00 39:01:59
    INDEX 01 39:03:58
  TRACK 36 AUDIO
    INDEX 00 40:00:47
    INDEX 01 40:02:46
  TRACK 37 AUDIO
    INDEX 00 40:34:64
    INDEX 01 40:36:63
  TRACK 38 AUDIO
    INDEX 00 41:26:67
    INDEX 01 41:28:66
  TRACK 39 AUDIO
    INDEX 00 42:16:29
    INDEX 01 42:18:28
  TRACK 40 AUDIO
    INDEX 00 43:18:67
    INDEX 01 43:20:66
  TRACK 41 AUDIO
    INDEX 00 44:25:68
    INDEX 01 44:27:67
  TRACK 42 AUDIO
    INDEX 00 45:59:45
    INDEX 01 46:01:44
  TRACK 43 AUDIO
    INDEX 00 46:37:18
    INDEX 01 46:39:17
  TRACK 44 AUDIO
    INDEX 00 47:32:48
    INDEX 01 47:34:47
  TRACK 45 AUDIO
    INDEX 00 48:25:47
    INDEX 01 48:27:46
  TRACK 46 AUDIO
    INDEX 00 49:29:37
    INDEX 01 49:31:36
  TRACK 47 AUDIO
    INDEX 00 50:28:25
    INDEX 01 50:30:24
  TRACK 48 AUDIO
    INDEX 00 51:03:33
    INDEX 01 51:05:32
  TRACK 49 AUDIO
    INDEX 00 51:55:49
    INDEX 01 51:57:48
  TRACK 50 AUDIO
    INDEX 00 52:36:46
    INDEX 01 52:38:45
